<mxfile host="app.diagrams.net" agent="Mozilla/5.0 (Windows NT 10.0; Win64; x64) AppleWebKit/537.36 (KHTML, like Gecko) Chrome/130.0.0.0 Safari/537.36" version="24.8.3">
  <diagram name="Pagina-1" id="R4LpQ99CABvujU7_ntuj">
    <mxGraphModel dx="2514" dy="2037" grid="1" gridSize="10" guides="1" tooltips="1" connect="1" arrows="1" fold="1" page="1" pageScale="1" pageWidth="827" pageHeight="1169" math="0" shadow="0">
      <root>
        <mxCell id="0" />
        <mxCell id="1" parent="0" />
        <mxCell id="6LJlDK4BNxtyRuSfktnJ-7" value="" style="edgeStyle=orthogonalEdgeStyle;rounded=0;orthogonalLoop=1;jettySize=auto;html=1;" edge="1" parent="1" source="6LJlDK4BNxtyRuSfktnJ-2" target="6LJlDK4BNxtyRuSfktnJ-6">
          <mxGeometry relative="1" as="geometry" />
        </mxCell>
        <mxCell id="6LJlDK4BNxtyRuSfktnJ-11" style="edgeStyle=orthogonalEdgeStyle;rounded=0;orthogonalLoop=1;jettySize=auto;html=1;entryX=0.5;entryY=0;entryDx=0;entryDy=0;" edge="1" parent="1" source="6LJlDK4BNxtyRuSfktnJ-2" target="6LJlDK4BNxtyRuSfktnJ-12">
          <mxGeometry relative="1" as="geometry">
            <mxPoint x="470" y="180" as="targetPoint" />
          </mxGeometry>
        </mxCell>
        <mxCell id="6LJlDK4BNxtyRuSfktnJ-27" style="edgeStyle=orthogonalEdgeStyle;rounded=0;orthogonalLoop=1;jettySize=auto;html=1;entryX=0;entryY=0.5;entryDx=0;entryDy=0;" edge="1" parent="1" source="6LJlDK4BNxtyRuSfktnJ-2" target="6LJlDK4BNxtyRuSfktnJ-25">
          <mxGeometry relative="1" as="geometry">
            <Array as="points">
              <mxPoint x="557" y="90" />
              <mxPoint x="557" y="130" />
            </Array>
          </mxGeometry>
        </mxCell>
        <mxCell id="6LJlDK4BNxtyRuSfktnJ-2" value="LOGIN" style="rounded=0;whiteSpace=wrap;html=1;" vertex="1" parent="1">
          <mxGeometry x="354" y="30" width="120" height="60" as="geometry" />
        </mxCell>
        <mxCell id="6LJlDK4BNxtyRuSfktnJ-4" value="Pagina dedicata all&#39;iscrizione e al login,&lt;div&gt;con annesse funzioni di recupero password ed email&lt;/div&gt;" style="text;html=1;align=center;verticalAlign=middle;resizable=0;points=[];autosize=1;strokeColor=none;fillColor=none;" vertex="1" parent="1">
          <mxGeometry x="270" y="-10" width="300" height="40" as="geometry" />
        </mxCell>
        <mxCell id="6LJlDK4BNxtyRuSfktnJ-6" value="REGISTRAZIONE" style="rounded=0;whiteSpace=wrap;html=1;" vertex="1" parent="1">
          <mxGeometry x="150" y="30" width="120" height="60" as="geometry" />
        </mxCell>
        <mxCell id="6LJlDK4BNxtyRuSfktnJ-17" value="" style="edgeStyle=orthogonalEdgeStyle;rounded=0;orthogonalLoop=1;jettySize=auto;html=1;" edge="1" parent="1" source="6LJlDK4BNxtyRuSfktnJ-12" target="6LJlDK4BNxtyRuSfktnJ-16">
          <mxGeometry relative="1" as="geometry">
            <Array as="points">
              <mxPoint x="414" y="310" />
              <mxPoint x="210" y="310" />
            </Array>
          </mxGeometry>
        </mxCell>
        <mxCell id="6LJlDK4BNxtyRuSfktnJ-21" style="edgeStyle=orthogonalEdgeStyle;rounded=0;orthogonalLoop=1;jettySize=auto;html=1;entryX=0.5;entryY=0;entryDx=0;entryDy=0;" edge="1" parent="1" source="6LJlDK4BNxtyRuSfktnJ-12" target="6LJlDK4BNxtyRuSfktnJ-22">
          <mxGeometry relative="1" as="geometry">
            <mxPoint x="580" y="370" as="targetPoint" />
            <Array as="points">
              <mxPoint x="414" y="310" />
              <mxPoint x="700" y="310" />
            </Array>
          </mxGeometry>
        </mxCell>
        <mxCell id="6LJlDK4BNxtyRuSfktnJ-12" value="LANDING PAGE&lt;div&gt;HOME&lt;/div&gt;" style="rounded=0;whiteSpace=wrap;html=1;" vertex="1" parent="1">
          <mxGeometry x="354" y="180" width="120" height="60" as="geometry" />
        </mxCell>
        <mxCell id="6LJlDK4BNxtyRuSfktnJ-13" value="Pagina dedicata alla registrazione di un utente" style="text;html=1;align=center;verticalAlign=middle;resizable=0;points=[];autosize=1;strokeColor=none;fillColor=none;" vertex="1" parent="1">
          <mxGeometry x="-120" y="45" width="270" height="30" as="geometry" />
        </mxCell>
        <mxCell id="6LJlDK4BNxtyRuSfktnJ-15" value="Landing page, una homepage diversa a seconda di che tipo di utente esegue il login" style="text;html=1;align=center;verticalAlign=middle;resizable=0;points=[];autosize=1;strokeColor=none;fillColor=none;" vertex="1" parent="1">
          <mxGeometry x="-116" y="190" width="470" height="30" as="geometry" />
        </mxCell>
        <mxCell id="6LJlDK4BNxtyRuSfktnJ-51" value="" style="edgeStyle=orthogonalEdgeStyle;rounded=0;orthogonalLoop=1;jettySize=auto;html=1;" edge="1" parent="1" source="6LJlDK4BNxtyRuSfktnJ-16" target="6LJlDK4BNxtyRuSfktnJ-48">
          <mxGeometry relative="1" as="geometry">
            <Array as="points">
              <mxPoint x="210" y="450" />
              <mxPoint x="50" y="450" />
            </Array>
          </mxGeometry>
        </mxCell>
        <mxCell id="6LJlDK4BNxtyRuSfktnJ-54" style="edgeStyle=orthogonalEdgeStyle;rounded=0;orthogonalLoop=1;jettySize=auto;html=1;entryX=0.5;entryY=0;entryDx=0;entryDy=0;" edge="1" parent="1" source="6LJlDK4BNxtyRuSfktnJ-16" target="6LJlDK4BNxtyRuSfktnJ-53">
          <mxGeometry relative="1" as="geometry">
            <Array as="points">
              <mxPoint x="210" y="450" />
              <mxPoint x="230" y="450" />
            </Array>
          </mxGeometry>
        </mxCell>
        <mxCell id="6LJlDK4BNxtyRuSfktnJ-60" style="edgeStyle=orthogonalEdgeStyle;rounded=0;orthogonalLoop=1;jettySize=auto;html=1;exitX=0;exitY=0;exitDx=0;exitDy=0;entryX=1;entryY=0.5;entryDx=0;entryDy=0;" edge="1" parent="1" source="6LJlDK4BNxtyRuSfktnJ-16" target="6LJlDK4BNxtyRuSfktnJ-59">
          <mxGeometry relative="1" as="geometry" />
        </mxCell>
        <mxCell id="6LJlDK4BNxtyRuSfktnJ-16" value="PROFILO" style="rounded=0;whiteSpace=wrap;html=1;" vertex="1" parent="1">
          <mxGeometry x="150" y="370" width="120" height="60" as="geometry" />
        </mxCell>
        <mxCell id="6LJlDK4BNxtyRuSfktnJ-20" value="Pagina con il profilo dell&#39;utente,&lt;div&gt;dove permette di visualizzare e&amp;nbsp;&lt;/div&gt;&lt;div&gt;scegliere se modificare i dati&lt;/div&gt;&lt;div&gt;o di eliminare il profilo&lt;/div&gt;" style="text;html=1;align=center;verticalAlign=middle;resizable=0;points=[];autosize=1;strokeColor=none;fillColor=none;" vertex="1" parent="1">
          <mxGeometry x="-50" y="365" width="190" height="70" as="geometry" />
        </mxCell>
        <mxCell id="6LJlDK4BNxtyRuSfktnJ-22" value="CORSE" style="rounded=0;whiteSpace=wrap;html=1;" vertex="1" parent="1">
          <mxGeometry x="640" y="370" width="120" height="60" as="geometry" />
        </mxCell>
        <mxCell id="6LJlDK4BNxtyRuSfktnJ-23" value="Pagina che visualizza le corse dell&#39;utente,&amp;nbsp;&lt;div&gt;con in alto quelle piÃ¹ recenti.&lt;/div&gt;&lt;div&gt;Permette azioni come iniziare, terminare e pagare la corsa&lt;/div&gt;" style="text;html=1;align=center;verticalAlign=middle;resizable=0;points=[];autosize=1;strokeColor=none;fillColor=none;" vertex="1" parent="1">
          <mxGeometry x="760" y="370" width="330" height="60" as="geometry" />
        </mxCell>
        <mxCell id="6LJlDK4BNxtyRuSfktnJ-24" value="PRENOTAZIONI" style="rounded=0;whiteSpace=wrap;html=1;" vertex="1" parent="1">
          <mxGeometry x="320" y="370" width="120" height="60" as="geometry" />
        </mxCell>
        <mxCell id="6LJlDK4BNxtyRuSfktnJ-33" value="" style="edgeStyle=orthogonalEdgeStyle;rounded=0;orthogonalLoop=1;jettySize=auto;html=1;" edge="1" parent="1" source="6LJlDK4BNxtyRuSfktnJ-25" target="6LJlDK4BNxtyRuSfktnJ-32">
          <mxGeometry relative="1" as="geometry" />
        </mxCell>
        <mxCell id="6LJlDK4BNxtyRuSfktnJ-38" style="edgeStyle=orthogonalEdgeStyle;rounded=0;orthogonalLoop=1;jettySize=auto;html=1;entryX=0;entryY=0.5;entryDx=0;entryDy=0;" edge="1" parent="1" source="6LJlDK4BNxtyRuSfktnJ-25" target="6LJlDK4BNxtyRuSfktnJ-37">
          <mxGeometry relative="1" as="geometry" />
        </mxCell>
        <mxCell id="6LJlDK4BNxtyRuSfktnJ-57" style="edgeStyle=orthogonalEdgeStyle;rounded=0;orthogonalLoop=1;jettySize=auto;html=1;entryX=0;entryY=0.5;entryDx=0;entryDy=0;" edge="1" parent="1" source="6LJlDK4BNxtyRuSfktnJ-25" target="6LJlDK4BNxtyRuSfktnJ-56">
          <mxGeometry relative="1" as="geometry" />
        </mxCell>
        <mxCell id="6LJlDK4BNxtyRuSfktnJ-25" value="HOME ADMIN" style="whiteSpace=wrap;html=1;" vertex="1" parent="1">
          <mxGeometry x="640" y="100" width="120" height="60" as="geometry" />
        </mxCell>
        <mxCell id="6LJlDK4BNxtyRuSfktnJ-26" value="" style="endArrow=classic;html=1;rounded=0;" edge="1" parent="1" target="6LJlDK4BNxtyRuSfktnJ-24">
          <mxGeometry width="50" height="50" relative="1" as="geometry">
            <mxPoint x="380" y="310" as="sourcePoint" />
            <mxPoint x="470" y="300" as="targetPoint" />
          </mxGeometry>
        </mxCell>
        <mxCell id="6LJlDK4BNxtyRuSfktnJ-32" value="DOCUMENTI" style="rounded=0;whiteSpace=wrap;html=1;" vertex="1" parent="1">
          <mxGeometry x="870" y="100" width="120" height="60" as="geometry" />
        </mxCell>
        <mxCell id="6LJlDK4BNxtyRuSfktnJ-34" value="La pagina dell&#39;admin gli permette di scegliere l&#39;azione da svolgere,&amp;nbsp;&lt;div&gt;che possono essere accettare documenti o modifiche di account&lt;/div&gt;" style="text;html=1;align=center;verticalAlign=middle;whiteSpace=wrap;rounded=0;" vertex="1" parent="1">
          <mxGeometry x="534" y="40" width="336" height="30" as="geometry" />
        </mxCell>
        <mxCell id="6LJlDK4BNxtyRuSfktnJ-36" value="Visualizza la pagina con i documenti da verificare" style="text;html=1;align=center;verticalAlign=middle;resizable=0;points=[];autosize=1;strokeColor=none;fillColor=none;" vertex="1" parent="1">
          <mxGeometry x="870" y="70" width="290" height="30" as="geometry" />
        </mxCell>
        <mxCell id="6LJlDK4BNxtyRuSfktnJ-37" value="SEGNALAZIONI" style="rounded=0;whiteSpace=wrap;html=1;" vertex="1" parent="1">
          <mxGeometry x="870" y="190" width="120" height="60" as="geometry" />
        </mxCell>
        <mxCell id="6LJlDK4BNxtyRuSfktnJ-41" value="Visualizza le segnalazioni pendenti" style="text;html=1;align=center;verticalAlign=middle;resizable=0;points=[];autosize=1;strokeColor=none;fillColor=none;" vertex="1" parent="1">
          <mxGeometry x="990" y="205" width="210" height="30" as="geometry" />
        </mxCell>
        <mxCell id="6LJlDK4BNxtyRuSfktnJ-43" value="ASSISTENZA" style="rounded=0;whiteSpace=wrap;html=1;" vertex="1" parent="1">
          <mxGeometry x="810" y="475" width="120" height="60" as="geometry" />
        </mxCell>
        <mxCell id="6LJlDK4BNxtyRuSfktnJ-44" value="" style="endArrow=classic;html=1;rounded=0;entryX=0.5;entryY=0;entryDx=0;entryDy=0;exitX=0.5;exitY=1;exitDx=0;exitDy=0;" edge="1" parent="1" source="6LJlDK4BNxtyRuSfktnJ-22" target="6LJlDK4BNxtyRuSfktnJ-43">
          <mxGeometry width="50" height="50" relative="1" as="geometry">
            <mxPoint x="530" y="310" as="sourcePoint" />
            <mxPoint x="550" y="370" as="targetPoint" />
          </mxGeometry>
        </mxCell>
        <mxCell id="6LJlDK4BNxtyRuSfktnJ-46" value="Pagina che permette di segnalare la corsa" style="text;html=1;align=center;verticalAlign=middle;resizable=0;points=[];autosize=1;strokeColor=none;fillColor=none;" vertex="1" parent="1">
          <mxGeometry x="930" y="490" width="250" height="30" as="geometry" />
        </mxCell>
        <mxCell id="6LJlDK4BNxtyRuSfktnJ-47" value="Pagina che visualizza le prenotazioni passate e attive.&lt;br&gt;Permette di aggiungere una prenotazione(in caso di user),&amp;nbsp;&lt;div&gt;accettare una prenotazione(in caso di driver),&lt;div&gt;o cancellare la prenotazione&lt;/div&gt;&lt;/div&gt;" style="text;html=1;align=center;verticalAlign=middle;resizable=0;points=[];autosize=1;strokeColor=none;fillColor=none;" vertex="1" parent="1">
          <mxGeometry x="260" y="430" width="340" height="70" as="geometry" />
        </mxCell>
        <mxCell id="6LJlDK4BNxtyRuSfktnJ-48" value="MACCHINE" style="rounded=0;whiteSpace=wrap;html=1;" vertex="1" parent="1">
          <mxGeometry x="-10" y="505" width="120" height="60" as="geometry" />
        </mxCell>
        <mxCell id="6LJlDK4BNxtyRuSfktnJ-52" value="Pagina che permette di aggiungere o rimuovere una macchina." style="text;html=1;align=center;verticalAlign=middle;resizable=0;points=[];autosize=1;strokeColor=none;fillColor=none;" vertex="1" parent="1">
          <mxGeometry x="-360" y="520" width="360" height="30" as="geometry" />
        </mxCell>
        <mxCell id="6LJlDK4BNxtyRuSfktnJ-53" value="DOCUMENTI" style="rounded=0;whiteSpace=wrap;html=1;" vertex="1" parent="1">
          <mxGeometry x="170" y="505" width="120" height="60" as="geometry" />
        </mxCell>
        <mxCell id="6LJlDK4BNxtyRuSfktnJ-55" value="Pagina che permette di aggiungere o&amp;nbsp;&lt;span style=&quot;background-color: initial;&quot;&gt;modificare i documenti dell&#39;utente,&amp;nbsp;&lt;/span&gt;&lt;div&gt;&lt;span style=&quot;background-color: initial;&quot;&gt;del driver o della macchina&lt;/span&gt;&lt;/div&gt;" style="text;html=1;align=center;verticalAlign=middle;resizable=0;points=[];autosize=1;strokeColor=none;fillColor=none;" vertex="1" parent="1">
          <mxGeometry x="25" y="565" width="410" height="40" as="geometry" />
        </mxCell>
        <mxCell id="6LJlDK4BNxtyRuSfktnJ-56" value="UTENTI" style="whiteSpace=wrap;html=1;" vertex="1" parent="1">
          <mxGeometry x="870" y="270" width="120" height="60" as="geometry" />
        </mxCell>
        <mxCell id="6LJlDK4BNxtyRuSfktnJ-58" value="Visualizza gli utenti, modifica lo stato (es. sospensione) degli account o di eliminarlo" style="text;html=1;align=center;verticalAlign=middle;resizable=0;points=[];autosize=1;strokeColor=none;fillColor=none;" vertex="1" parent="1">
          <mxGeometry x="990" y="285" width="470" height="30" as="geometry" />
        </mxCell>
        <mxCell id="6LJlDK4BNxtyRuSfktnJ-59" value="MODIFICA" style="rounded=0;whiteSpace=wrap;html=1;" vertex="1" parent="1">
          <mxGeometry x="-95" y="300" width="120" height="60" as="geometry" />
        </mxCell>
        <mxCell id="6LJlDK4BNxtyRuSfktnJ-61" value="Pagina che permette di modificare i propri dati&amp;nbsp;" style="text;html=1;align=center;verticalAlign=middle;resizable=0;points=[];autosize=1;strokeColor=none;fillColor=none;" vertex="1" parent="1">
          <mxGeometry x="-360" y="315" width="270" height="30" as="geometry" />
        </mxCell>
        <mxCell id="6LJlDK4BNxtyRuSfktnJ-62" value="RECENSIONI" style="rounded=0;whiteSpace=wrap;html=1;" vertex="1" parent="1">
          <mxGeometry x="642" y="550" width="120" height="60" as="geometry" />
        </mxCell>
        <mxCell id="6LJlDK4BNxtyRuSfktnJ-63" style="edgeStyle=orthogonalEdgeStyle;rounded=0;orthogonalLoop=1;jettySize=auto;html=1;entryX=0.483;entryY=0;entryDx=0;entryDy=0;entryPerimeter=0;" edge="1" parent="1" source="6LJlDK4BNxtyRuSfktnJ-22" target="6LJlDK4BNxtyRuSfktnJ-62">
          <mxGeometry relative="1" as="geometry">
            <mxPoint x="695" y="548" as="targetPoint" />
          </mxGeometry>
        </mxCell>
        <mxCell id="6LJlDK4BNxtyRuSfktnJ-64" value="Permette all&#39;utente di lasciare una recensione o di modificarne una passata" style="text;html=1;align=center;verticalAlign=middle;resizable=0;points=[];autosize=1;strokeColor=none;fillColor=none;" vertex="1" parent="1">
          <mxGeometry x="570" y="610" width="420" height="30" as="geometry" />
        </mxCell>
      </root>
    </mxGraphModel>
  </diagram>
</mxfile>
